<?xml version="1.0" encoding="utf-8"?>
<!-- Generator: Adobe Illustrator 24.0.0, SVG Export Plug-In . SVG Version: 6.00 Build 0)  -->
<svg version="1.1" xmlns="http://www.w3.org/2000/svg" xmlns:xlink="http://www.w3.org/1999/xlink" x="0px" y="0px"
	 viewBox="0 0 4000 4000" style="enable-background:new 0 0 4000 4000;" xml:space="preserve">
<style type="text/css">
	.st0{fill:#656565;}
	.st1{fill:#4C4C4C;}
	.st2{fill:#989898;}
	.st3{fill:#DA1F1F;}
	.st4{fill:#F8F876;}
	.st5{fill:#67B147;}
</style>
<g id="Слой_1">
</g>
<g id="Слой_2">
	<path class="st0" d="M1079.83,1789.18c200.44,356.88,418.96,701.3,655.56,1033.27c136.49,191.51,279,378.88,427.52,562.09
		c23.27,15.2,46.53,30.4,69.8,45.61c-9.42-65.04-18.84-130.09-28.26-195.13c-28.26-29.73-56.51-59.47-84.77-89.2
		c-22.61-55.75-45.21-111.5-67.82-167.26c-65.99-82.29-131.98-164.59-197.98-246.88c-75.29-140.71-150.58-281.43-225.88-422.14
		c-116.79-185.84-233.59-371.68-350.38-557.52c-116.23-149.03-232.46-298.06-348.7-447.09l-210.79-299.99l-79.12,362.39l50.86-61.33
		L1079.83,1789.18z"/>
	<path class="st1" d="M2243.46,3394.48l-89.09-11.98c-24.64-3.31-47.55,13.86-50.91,38.17l-1.14,8.27c0.04,0.11,0.08,0.21,0.12,0.33
		c3.39,11.45,8.65,22.79,16.21,32.24c2.72,3.4,5.21,6.7,9.6,10.26c6.69,5.44,13.46,8.15,17.98,9.56c0,0,2.06,1.48,2.18,1.56
		c16.19,5.56,29.43,8.58,38.77,10.32c3.66,0.68,9.17,1.62,9.18,1.54c0.02-0.12-15.52-3.1-29.04-5.67c25.07,5.89,50.77,9.35,76.5,9.9
		c18.39-3.63,33.37-18.42,36.03-37.71l2.29-16.57C2285.51,3420.39,2268.1,3397.79,2243.46,3394.48z"/>
	<path class="st1" d="M780.31,971.48L2034.97,676l339.02,356.81l271.27,356.81l519.93,860.9l214.75,419.34
		c15.52,30.47,42.11,92.98,39.56,174.89c-0.84,27.04-4.69,114.65-62.17,189.56c-7.14,9.31-13.34,15.45-18.12,20.41
		c-43.45,45.12-89.96,68.63-177.94,104.06c-110.08,44.33-103.1,34.04-168.87,64.13c-21.38,9.78-57.22,26.93-109.8,46.59
		c-26.46,9.89-47.44,16.79-59.65,20.79c-33.74,11.05-62.81,19.4-125.57,36.2c-61.29,16.41-76.97,20.03-97.33,25.6
		c-283.43,77.54-321.14,106.75-367.34,78.05c-65.03-40.39-30.63-123.29-113.03-284.34c-37.02-72.37-79.35-124.77-107.38-156.11
		l-695.12-1132.22l-599.05-852.55L780.31,971.48z"/>
	<path class="st0" d="M887.68,1016.09l1105.44-267.61l471.29,624.42c283.63,454.23,567.26,908.46,850.89,1362.7
		c6.47,67.98,12.95,135.96,19.42,203.94l-1079.41,362.39l-50.86-183.98l-751.63-1142.92L887.68,1016.09z"/>
	<path class="st2" d="M2184.74,2522.8l-243.87,82.27c-23.53,7.94-49.36-4.56-57.41-27.77l-26.4-76.18
		c-8.05-23.21,4.62-48.7,28.15-56.64l243.87-82.27c23.53-7.94,49.36,4.56,57.41,27.77l26.41,76.18
		C2220.94,2489.38,2208.27,2514.86,2184.74,2522.8z"/>
	<path class="st2" d="M2564.59,2394.66l-243.87,82.27c-23.53,7.94-49.36-4.56-57.41-27.77l-26.4-76.18
		c-8.05-23.21,4.62-48.7,28.15-56.64l243.87-82.27c23.53-7.94,49.36,4.56,57.41,27.77l26.41,76.18
		C2600.79,2361.24,2588.12,2386.72,2564.59,2394.66z"/>
	<path class="st2" d="M2936.2,2269.3l-243.87,82.27c-23.53,7.94-49.36-4.56-57.41-27.77l-26.4-76.18
		c-8.05-23.21,4.62-48.7,28.15-56.64l243.87-82.27c23.53-7.94,49.36,4.56,57.41,27.77l26.41,76.18
		C2972.4,2235.88,2959.73,2261.36,2936.2,2269.3z"/>
	<path class="st2" d="M2841.31,2097.64l-243.87,82.27c-23.53,7.94-49.36-4.56-57.41-27.77l-26.41-76.18
		c-8.05-23.21,4.62-48.7,28.15-56.64l243.87-82.27c23.53-7.94,49.36,4.56,57.41,27.77l26.4,76.18
		C2877.51,2064.22,2864.84,2089.7,2841.31,2097.64z"/>
	<path class="st2" d="M2077.13,2347.18l-243.87,82.27c-23.53,7.94-49.36-4.56-57.41-27.77l-26.4-76.18
		c-8.05-23.21,4.62-48.7,28.15-56.64l243.87-82.27c23.53-7.94,49.36,4.56,57.41,27.77l26.4,76.18
		C2113.32,2313.76,2100.66,2339.24,2077.13,2347.18z"/>
	<path class="st2" d="M1962.55,2155.19l-243.87,82.27c-23.53,7.94-49.36-4.56-57.41-27.77l-26.4-76.18
		c-8.05-23.21,4.62-48.7,28.15-56.64l243.87-82.27c23.53-7.94,49.36,4.56,57.41,27.77l26.4,76.18
		C1998.75,2121.76,1986.08,2147.25,1962.55,2155.19z"/>
	<path class="st2" d="M2341.43,2027.38l-243.87,82.27c-23.53,7.94-49.36-4.56-57.41-27.77l-26.4-76.18
		c-8.05-23.21,4.62-48.7,28.15-56.64l243.87-82.27c23.53-7.94,49.36,4.56,57.41,27.77l26.41,76.18
		C2377.63,1993.95,2364.96,2019.44,2341.43,2027.38z"/>
	<path class="st2" d="M2718.44,1900.2l-243.87,82.27c-23.53,7.94-49.36-4.56-57.41-27.77l-26.41-76.18
		c-8.05-23.21,4.62-48.7,28.15-56.64l243.87-82.27c23.53-7.94,49.36,4.56,57.41,27.77l26.4,76.18
		C2754.64,1866.77,2741.97,1892.26,2718.44,1900.2z"/>
	<path class="st2" d="M2458.41,2218.56l-243.87,82.27c-23.53,7.94-49.36-4.56-57.41-27.77l-26.41-76.18
		c-8.05-23.21,4.62-48.7,28.15-56.64l243.87-82.27c23.53-7.94,49.36,4.56,57.41,27.77l26.41,76.18
		C2494.61,2185.13,2481.94,2210.62,2458.41,2218.56z"/>
	<path class="st3" d="M2478.26,2972.56l-243.87,82.27c-23.53,7.94-49.36-4.56-57.41-27.77l-34.99-100.95
		c-8.05-23.21,4.62-48.7,28.15-56.64l243.87-82.27c23.53-7.94,49.36,4.56,57.41,27.77l34.99,100.95
		C2514.46,2939.14,2501.79,2964.62,2478.26,2972.56z"/>
	<path class="st4" d="M2843.23,2861.46l-247.2,71.93c-23.85,6.94-49.12-6.63-56.16-30.16l-30.59-102.33
		c-7.03-23.53,6.72-48.46,30.58-55.4l247.2-71.93c23.85-6.94,49.12,6.63,56.16,30.16l30.59,102.33
		C2880.84,2829.59,2867.08,2854.52,2843.23,2861.46z"/>
	<path class="st5" d="M3221.58,2745.63l-243.87,82.27c-23.53,7.94-49.36-4.56-57.41-27.77l-34.99-100.95
		c-8.05-23.21,4.62-48.7,28.15-56.64l243.87-82.27c23.53-7.94,49.36,4.56,57.41,27.77l34.99,100.95
		C3257.78,2712.21,3245.11,2737.69,3221.58,2745.63z"/>
	<path class="st2" d="M1709.81,1903.98l-193.52,56.31c-23.85,6.94-49.12-6.63-56.16-30.16l-19.06-63.75
		c-7.03-23.53,6.72-48.46,30.58-55.4l193.52-56.31c23.85-6.94,49.12,6.63,56.16,30.16l19.06,63.75
		C1747.42,1872.11,1733.66,1897.04,1709.81,1903.98z"/>
	<path class="st2" d="M2573.19,1637.69l-190.9,64.4c-23.53,7.94-49.36-4.56-57.41-27.77l-21.8-62.89
		c-8.05-23.21,4.62-48.7,28.15-56.64l190.9-64.4c23.53-7.94,49.36,4.56,57.41,27.77l21.8,62.89
		C2609.39,1604.27,2596.72,1629.76,2573.19,1637.69z"/>
	<path class="st2" d="M2275.93,1756.86l-429.22,124.89c-23.85,6.94-49.12-6.63-56.16-30.16l-27.12-90.71
		c-7.03-23.53,6.72-48.46,30.58-55.4l429.22-124.89c23.85-6.94,49.12,6.63,56.16,30.16l27.12,90.71
		C2313.54,1724.99,2299.79,1749.92,2275.93,1756.86z"/>
	<polygon class="st2" points="1091.13,1216.79 2050.6,971.48 2414.82,1450.95 1424.56,1757.59 	"/>
	<path class="st0" d="M639.02,1367.32c-16.83,18.02-10.61,56.68,0,122.65c2.04,12.66,7.94,46.07,33.91,117.08
		c20.37,55.72,35.01,95.76,62.17,144.96c31.05,56.26,60.39,109.41,118.68,156.11c29.89,23.94,79.87,61.93,152.59,66.9
		c26.15,1.79,78.76,5.39,113.03-22.3c68.1-55.03,35.61-210.91-11.3-306.64C995.45,1416.24,690.85,1311.85,639.02,1367.32z"/>
	<path class="st1" d="M622.07,1071.84l-73.47,94.78l90.42,200.71l79.12-362.39C686.12,1027.24,654.09,1049.54,622.07,1071.84z"/>
	<path class="st1" d="M2182.76,3393.91c-75.66-101.28-151.31-202.56-226.97-303.85l-440.81-674.6l-22.02-31.14l-317.06-448.33
		c-96.07-146.81-468.38-634.55-486.02-630c-35.66,9.2-49.07,54.89-50.86,61.33l1472.18,2046.1v36.94c2.19,3.91,4.66,7.65,7.45,11.14
		c5.58,4.36,11.22,8.65,16.6,13.25h103.1l82.56-42.11C2274.87,3419.73,2228.81,3406.82,2182.76,3393.91z"/>
	<path class="st1" d="M3166.05,3185.08c11.63-0.03,24.19-0.66,34.7-6.1c0.9-0.47,1.75-0.98,2.58-1.51c0.13-1.55,1.2-3.01,3.24-3.01
		c0.24,0,0.47,0.02,0.68,0.06c6.64-5.83,10.39-13.97,12.27-22.87c0.09-0.44,0.25-0.8,0.45-1.11v-61.2c0-4.38-3.65-7.97-8.1-7.97
		h-156.03c-4.46,0-8.1,3.59-8.1,7.97v89.99c0,4.38,3.65,7.97,8.1,7.97h107.09C3163.27,3186.07,3164.32,3185.08,3166.05,3185.08z"/>
</g>
</svg>
